<?xml version="1.0" encoding="UTF-8"?>
<svg width="908px" height="822px" viewBox="0 0 908 822" version="1.1" xmlns="http://www.w3.org/2000/svg" xmlns:xlink="http://www.w3.org/1999/xlink">
    <!-- Generator: Sketch 53.2 (72643) - https://sketchapp.com -->
    <title>Combined Shape</title>
    <desc>Created with Sketch.</desc>
    <g id="Page-1" stroke="none" stroke-width="1" fill="none" fill-rule="evenodd">
        <path d="M51,0 L857,0 C885.166522,-5.1741062e-15 908,22.8334778 908,51 L908,771 C908,799.166522 885.166522,822 857,822 L51,822 C22.8334778,822 3.44940413e-15,799.166522 0,771 L0,51 C-3.44940413e-15,22.8334778 22.8334778,5.1741062e-15 51,0 Z M280.663574,591.178711 C367.743652,591.178711 430.817871,536.341797 433.64209,458.675781 L350.79834,458.675781 C345.855957,495.155273 318.084473,519.161133 280.898926,519.161133 C233.35791,519.161133 204.409668,478.209961 204.409668,411.84082 C204.409668,345.707031 233.35791,305.226562 280.663574,305.226562 C317.849121,305.226562 345.855957,330.173828 350.327637,367.124023 L433.406738,367.124023 C430.817871,290.164062 366.096191,233.208984 280.663574,233.208984 C178.756348,233.208984 116.388184,301.225586 116.388184,412.076172 C116.388184,522.926758 178.991699,591.178711 280.663574,591.178711 Z M691.822754,582 L798.437012,242.387695 L705.237793,242.387695 L641.928223,492.331055 L637.456543,492.331055 L572.26416,242.387695 L473.181152,242.387695 L582.619629,582 L691.822754,582 Z" id="Combined-Shape" fill="#FF7F82"></path>
    </g>
</svg>