<svg width="18" height="18" viewBox="0 0 18 18" fill="none" xmlns="http://www.w3.org/2000/svg">
<g clip-path="url(#clip0_54_5)">
<path fill-rule="evenodd" clip-rule="evenodd" d="M0.454021 5.7718H3.96237V17.9988H0.454021V5.7718ZM2.11877 4.24241H2.09337C0.823378 4.24241 0 3.30772 0 2.12409C0 0.91625 0.847718 0 2.14311 0C3.43744 0 4.2333 0.913946 4.2587 2.12063C4.2587 3.30426 3.43744 4.24241 2.11877 4.24241ZM18 18H14.0218V11.6715C14.0218 10.0154 13.3995 8.8859 12.031 8.8859C10.9844 8.8859 10.4023 9.64771 10.1313 10.3842C10.0298 10.6469 10.0456 11.0146 10.0456 11.3834V18H6.10442C6.10442 18 6.15522 6.79063 6.10442 5.7718H10.0456V7.69074C10.2785 6.85171 11.5379 5.65425 13.5476 5.65425C16.041 5.65425 18 7.41414 18 11.2002V18Z" fill="#0274B3"/>
</g>
<defs>
<clipPath id="clip0_54_5">
<rect width="18" height="18" fill="white"/>
</clipPath>
</defs>
</svg>
